<?xml version="1.0" encoding="UTF-8"?>
<svg width="700pt" height="700pt" version="1.1" viewBox="0 0 700 700" xmlns="http://www.w3.org/2000/svg" xmlns:xlink="http://www.w3.org/1999/xlink">
 <g>
  <path d="m331.45 49.266c-33.07 0-60.199 26.84-60.199 59.852 0 23.449 13.828 43.871 33.602 53.727l-17.5 62.648c-3.0312-0.375-6.1445-0.52344-9.2734-0.52344-19.23 0-36.789 7.2852-50.051 19.25l-26.074-21.176c3.6758-7.1445 5.7734-15.266 5.7734-23.801 0-29.012-23.859-52.5-52.676-52.5-28.816 0-52.5 23.488-52.5 52.5 0 28.848 23.609 52.5 52.5 52.5 12.332 0 23.715-4.3711 32.727-11.551l26.074 21.352c-6.6992 11.203-10.5 24.207-10.5 38.148 0 41.133 33.504 74.551 74.727 74.551 5.2695 0 10.426-0.53906 15.398-1.5742l16.977 45.852c-14.516 8.6914-24.324 24.508-24.324 42.523 0 27.281 22.559 49.699 49.875 49.699s49.699-22.418 49.699-49.699-22.383-49.523-49.699-49.523c-1.4141 0-2.8164 0.054688-4.1992 0.17188l-17.324-46.727c10.332-5.7188 19.109-13.922 25.727-23.625l78.051 37.449c-0.12891 1.1328-0.17578 2.3359-0.17578 3.5 0 16.684 13.77 30.449 30.449 30.449s30.449-13.766 30.449-30.449c0-16.684-13.77-30.449-30.449-30.449-7.4023 0-14.113 2.8828-19.426 7.3516l-79.277-37.977c2.0664-6.8047 3.3242-14.055 3.3242-21.523 0-2.5156-0.10547-5.0703-0.34766-7.5234l154-39.551c8.0625 15.324 24.082 25.898 42.523 25.898 26.449 0 48.125-21.727 48.125-48.301 0-26.418-21.676-48.125-48.125-48.125s-48.301 21.707-48.301 48.125v0.875l-153.82 39.375c-7.375-17.203-21.109-31.105-38.152-38.852l17.324-62.824c1.6797 0.14063 3.3594 0.35156 5.0742 0.35156 33.07 0 60.199-27.012 60.199-60.023 0-33.012-27.129-59.852-60.199-59.852zm0 22.398c20.996 0 37.801 16.602 37.801 37.449 0 20.848-16.801 37.625-37.801 37.625-20.996 0-37.801-16.777-37.801-37.625 0-20.848 16.805-37.449 37.801-37.449zm-176.4 97.477c16.828 0 30.273 13.199 30.273 30.102 0 16.621-13.52 30.102-30.273 30.102-16.758 0-30.102-13.477-30.102-30.102 0-16.902 13.27-30.102 30.102-30.102zm394.27 35.352c14.324 0 25.727 11.527 25.727 25.727 0 14.484-11.402 25.898-25.727 25.898-14.965 0.21875-24.836-7.6133-25.898-25.898 0-14.199 11.578-25.727 25.898-25.727zm-271.25 42.875c29.199 0 52.676 23.309 52.676 52.324s-23.43 52.148-52.676 52.148c-29.246 0-52.324-23.086-52.324-52.148s23.129-52.324 52.324-52.324zm170.45 126.88c4.5938 0 8.0508 3.543 8.0508 8.0508 0 4.5039-3.457 8.0508-8.0508 8.0508s-8.0508-3.543-8.0508-8.0508c0-4.5039 3.457-8.0508 8.0508-8.0508zm-115.5 59.676c0.92578-0.09375 2.0234 0 2.9766 0 15.23 0 27.301 12.023 27.301 27.125 0 15.102-12.07 27.301-27.301 27.301s-27.477-12.199-27.477-27.301c0-14.156 10.617-25.738 24.5-27.125z" fill-rule="evenodd"/>
  <use x="70" y="644" xlink:href="#u"/>
  <use x="90.550781" y="644" xlink:href="#f"/>
  <use x="104.359375" y="644" xlink:href="#b"/>
  <use x="123.347656" y="644" xlink:href="#a"/>
  <use x="142.242188" y="644" xlink:href="#e"/>
  <use x="155.628906" y="644" xlink:href="#b"/>
  <use x="174.617188" y="644" xlink:href="#j"/>
  <use x="204.410156" y="644" xlink:href="#i"/>
  <use x="224.453125" y="644" xlink:href="#d"/>
  <use x="252.453125" y="644" xlink:href="#g"/>
  <use x="274.011719" y="644" xlink:href="#c"/>
  <use x="293.25" y="644" xlink:href="#d"/>
  <use x="311.5" y="644" xlink:href="#d"/>
  <use x="329.75" y="644" xlink:href="#a"/>
  <use x="348.648438" y="644" xlink:href="#h"/>
  <use x="378.328125" y="644" xlink:href="#g"/>
  <use x="399.890625" y="644" xlink:href="#a"/>
  <use x="418.78125" y="644" xlink:href="#t"/>
  <use x="435.078125" y="644" xlink:href="#s"/>
  <use x="453.703125" y="644" xlink:href="#a"/>
  <use x="70" y="672" xlink:href="#r"/>
  <use x="82.183594" y="672" xlink:href="#f"/>
  <use x="95.992188" y="672" xlink:href="#c"/>
  <use x="115.226562" y="672" xlink:href="#q"/>
  <use x="154.152344" y="672" xlink:href="#e"/>
  <use x="167.535156" y="672" xlink:href="#p"/>
  <use x="187.46875" y="672" xlink:href="#b"/>
  <use x="216.207031" y="672" xlink:href="#o"/>
  <use x="239.640625" y="672" xlink:href="#c"/>
  <use x="258.878906" y="672" xlink:href="#n"/>
  <use x="278.8125" y="672" xlink:href="#h"/>
  <use x="308.492188" y="672" xlink:href="#m"/>
  <use x="329.015625" y="672" xlink:href="#f"/>
  <use x="342.820312" y="672" xlink:href="#c"/>
  <use x="362.058594" y="672" xlink:href="#l"/>
  <use x="371.65625" y="672" xlink:href="#b"/>
  <use x="390.648438" y="672" xlink:href="#k"/>
  <use x="407.242188" y="672" xlink:href="#e"/>
 </g>
</svg>
