<?xml version="1.0" encoding="UTF-8"?>
<svg width="700pt" height="700pt" version="1.1" viewBox="0 0 700 700" xmlns="http://www.w3.org/2000/svg" xmlns:xlink="http://www.w3.org/1999/xlink">
 <g>
  <path d="m350 388.7c47.824 0 93.688-18.996 127.5-52.812 33.816-33.816 52.816-79.684 52.816-127.51s-19-93.688-52.816-127.5-79.68-52.816-127.5-52.816-93.688 19-127.5 52.816-52.816 79.68-52.816 127.5c0.042968 47.812 19.059 93.652 52.863 127.46 33.809 33.809 79.648 52.82 127.46 52.863zm0-327.09c38.945 0 76.297 15.473 103.83 43.012 27.539 27.539 43.004 64.891 43 103.84-0.003906 38.945-15.48 76.297-43.027 103.83-27.543 27.535-64.898 42.996-103.84 42.988-38.945-0.011719-76.289-15.492-103.82-43.039-27.531-27.551-42.988-64.906-42.973-103.85 0.042969-38.922 15.531-76.238 43.059-103.76 27.527-27.516 64.852-42.988 103.77-43.016z"/>
  <path d="m286.78 230.44h63.223c4.457 0 8.7305-1.7695 11.879-4.9219 3.1523-3.1523 4.9219-7.4258 4.9219-11.879v-99.793c0-6-3.2031-11.547-8.4023-14.551-5.1953-3-11.602-3-16.797 0-5.1992 3.0039-8.4023 8.5508-8.4023 14.551v83.105h-46.48c-6 0-11.547 3.1992-14.547 8.3984-3.0039 5.1992-3.0039 11.602 0 16.801 3 5.1992 8.5469 8.3984 14.547 8.3984z"/>
  <path d="m514.86 441.67c-8.9805 0.058594-17.738 2.7891-25.16 7.8477-7.418 5.0547-13.164 12.207-16.504 20.543h-84c-4.4492-11.309-13.277-20.348-24.48-25.066s-23.836-4.7188-35.039 0c-11.203 4.7188-20.027 13.758-24.48 25.066h-83.328c-5.2461-13.098-16.309-22.996-29.914-26.758-13.602-3.7578-28.18-0.94922-39.406 7.5977-11.23 8.5469-17.824 21.848-17.824 35.961s6.5938 27.414 17.824 35.961c11.227 8.5469 25.805 11.359 39.406 7.5977 13.605-3.7578 24.668-13.656 29.914-26.758h83.609c4.4219 11.344 13.242 20.414 24.457 25.148 11.215 4.7383 23.871 4.7383 35.082 0 11.215-4.7344 20.039-13.805 24.461-25.148h83.719c4.0039 10.277 11.629 18.73 21.434 23.777 9.8086 5.0469 21.121 6.332 31.809 3.6133s20.016-9.25 26.223-18.363c6.207-9.1172 8.8633-20.188 7.4766-31.129-1.3906-10.938-6.7305-20.992-15.02-28.27-8.2852-7.2734-18.949-11.27-29.977-11.23z"/>
  <use x="70" y="644" xlink:href="#x"/>
  <use x="90.550781" y="644" xlink:href="#c"/>
  <use x="104.359375" y="644" xlink:href="#a"/>
  <use x="123.347656" y="644" xlink:href="#e"/>
  <use x="142.242188" y="644" xlink:href="#b"/>
  <use x="155.628906" y="644" xlink:href="#a"/>
  <use x="174.617188" y="644" xlink:href="#k"/>
  <use x="204.410156" y="644" xlink:href="#j"/>
  <use x="224.453125" y="644" xlink:href="#i"/>
  <use x="252.453125" y="644" xlink:href="#h"/>
  <use x="262.867188" y="644" xlink:href="#g"/>
  <use x="282.804688" y="644" xlink:href="#w"/>
  <use x="299.46875" y="644" xlink:href="#b"/>
  <use x="312.851562" y="644" xlink:href="#v"/>
  <use x="322.453125" y="644" xlink:href="#f"/>
  <use x="352.132812" y="644" xlink:href="#u"/>
  <use x="373.476562" y="644" xlink:href="#t"/>
  <use x="383.070312" y="644" xlink:href="#e"/>
  <use x="401.96875" y="644" xlink:href="#s"/>
  <use x="420.585938" y="644" xlink:href="#a"/>
  <use x="70" y="672" xlink:href="#r"/>
  <use x="82.183594" y="672" xlink:href="#c"/>
  <use x="95.992188" y="672" xlink:href="#d"/>
  <use x="115.226562" y="672" xlink:href="#q"/>
  <use x="154.152344" y="672" xlink:href="#b"/>
  <use x="167.535156" y="672" xlink:href="#p"/>
  <use x="187.46875" y="672" xlink:href="#a"/>
  <use x="216.207031" y="672" xlink:href="#o"/>
  <use x="239.640625" y="672" xlink:href="#d"/>
  <use x="258.878906" y="672" xlink:href="#g"/>
  <use x="278.8125" y="672" xlink:href="#f"/>
  <use x="308.492188" y="672" xlink:href="#n"/>
  <use x="329.015625" y="672" xlink:href="#c"/>
  <use x="342.820312" y="672" xlink:href="#d"/>
  <use x="362.058594" y="672" xlink:href="#m"/>
  <use x="371.65625" y="672" xlink:href="#a"/>
  <use x="390.648438" y="672" xlink:href="#l"/>
  <use x="407.242188" y="672" xlink:href="#b"/>
 </g>
</svg>
